Coordinates
version=1
nRows=21
nColumns=22
inDegrees=yes

Units are S.I. units (second, meters, Newtons, ...)
If the header above contains a line with 'inDegrees', this indicates whether rotational values are in degrees (yes) or radians (no).

endheader
time	pelvis_tilt	pelvis_list	pelvis_rotation	pelvis_tx	pelvis_ty	pelvis_tz	hip_flexion_r	hip_adduction_r	hip_rotation_r	knee_angle_r	ankle_angle_r	subtalar_angle_r	hip_flexion_l	hip_adduction_l	hip_rotation_l	knee_angle_l	ankle_angle_l	subtalar_angle_l	lumbar_extension	lumbar_bending	lumbar_rotation
      5.02000000	     -1.46777164	      3.69061112	   -103.61713684	      0.43961696	      0.89718172	      0.71071744	     29.16072474	      4.64886895	    -24.92929996	    -23.48129709	      2.36176358	    -13.19658013	    -11.34960989	     -4.26105587	     -6.01814401	    -30.73415278	      0.84540350	      7.87028158	     -1.59671348	      3.56326629	    -15.74821891
      5.03000000	     -1.43854405	      3.58938677	   -104.38225572	      0.43474654	      0.89909814	      0.71978235	     28.57310288	      5.01997560	    -24.17873219	    -23.81500083	      2.80751640	    -13.12203306	    -10.55948197	     -4.26186186	     -5.59158828	    -32.97213516	     -1.77879612	      7.90969279	     -1.56939321	      3.55607265	    -15.74308750
      5.04000000	     -1.35826531	      3.46951863	   -105.05834860	      0.43007982	      0.90097077	      0.72856537	     27.92739922	      5.30319987	    -23.49262273	    -24.03440745	      3.31208535	    -13.08447202	     -9.58137971	     -4.22939332	     -5.04816797	    -35.38655665	     -4.44457110	      7.92395434	     -1.57116113	      3.48129691	    -15.85914850
      5.05000000	     -1.27543721	      3.32247302	   -105.66058757	      0.42557664	      0.90280814	      0.73709361	     27.19945153	      5.53773060	    -22.94397686	    -24.13682602	      3.82502586	    -13.07565935	     -8.45239794	     -4.21549515	     -4.46648727	    -37.95174920	     -7.16546729	      7.81683020	     -1.62353262	      3.38576396	    -16.01819812
      5.06000000	     -1.20644167	      3.14423300	   -106.20632159	      0.42124063	      0.90458538	      0.74535319	     26.40281168	      5.73433422	    -22.52234832	    -24.15843511	      4.30723263	    -13.05538858	     -7.19020811	     -4.24150835	     -3.91467150	    -40.64640672	     -9.90924417	      7.59972987	     -1.73862567	      3.29504742	    -16.22186901
      5.07000000	     -1.15603835	      3.00416059	   -106.71939235	      0.41704280	      0.90617052	      0.75333712	     25.62671205	      5.93031873	    -22.16258359	    -24.12799043	      4.80878678	    -12.99480849	     -5.74291485	     -4.31557459	     -3.37470327	    -43.43675053	    -12.59885321	      7.29906856	     -1.83513100	      3.23882842	    -16.42505253
      5.08000000	     -1.14988226	      2.85963521	   -107.22625651	      0.41293845	      0.90763271	      0.76106548	     24.82666953	      6.14089333	    -21.88223216	    -24.06136471	      5.26114750	    -12.87350440	     -4.19060839	     -4.47070129	     -2.93545539	    -46.27174438	    -15.17175328	      6.97720805	     -1.97224036	      3.23090656	    -16.61136617
      5.09000000	     -1.18024730	      2.76548933	   -107.75625375	      0.40888796	      0.90888527	      0.76854001	     24.07339799	      6.39269746	    -21.60848214	    -23.97778375	      5.70630938	    -12.67194951	     -2.50536460	     -4.69357242	     -2.55428959	    -49.09946530	    -17.50037867	      6.63763814	     -2.08227617	      3.28009151	    -16.71584387
      5.10000000	     -1.24384056	      2.70693347	   -108.33520265	      0.40486561	      0.90996520	      0.77580104	     23.35410357	      6.68696324	    -21.31173786	    -23.88635018	      6.15296901	    -12.39080022	     -0.74118440	     -4.97125173	     -2.23947198	    -51.85827178	    -19.46123146	      6.31819248	     -2.17765924	      3.38098050	    -16.71024786
      5.11000000	     -1.33386353	      2.67287409	   -108.98942841	      0.40082089	      0.91090118	      0.78281760	     22.67665551	      7.02159555	    -20.96336920	    -23.81992519	      6.55693223	    -12.06041838	      1.06809443	     -5.29604624	     -2.00000801	    -54.50502379	    -20.97557285	      6.05212711	     -2.27409880	      3.51822266	    -16.59198148
      5.12000000	     -1.43662569	      2.66311879	   -109.73102786	      0.39672702	      0.91172539	      0.78961904	     22.02764020	      7.39779639	    -20.52040293	    -23.75168550	      6.92552545	    -11.71181590	      2.89810185	     -5.64184555	     -1.80244110	    -56.99502815	    -21.97070876	      5.83529723	     -2.36061793	      3.67662619	    -16.34411410
      5.13000000	     -1.57293419	      2.64302970	   -110.58423989	      0.39250829	      0.91253061	      0.79621013	     21.35153730	      7.83496688	    -19.97692481	    -23.66610303	      7.23409699	    -11.42681183	      4.67478710	     -6.02748522	     -1.66026491	    -59.28697751	    -22.47077516	      5.71862152	     -2.48680686	      3.86094527	    -15.92923878
      5.14000000	     -1.64694168	      2.68417595	   -111.50615714	      0.38825432	      0.91316504	      0.80253911	     20.77050956	      8.25161161	    -19.30822380	    -23.58863010	      7.57926302	    -11.05485273	      6.52588791	     -6.35655928	     -1.47922484	    -61.39018516	    -22.42655531	      5.44715988	     -2.53117307	      3.99469820	    -15.46520032
      5.15000000	     -1.78060490	      2.66071794	   -112.55013517	      0.38377672	      0.91392509	      0.80866724	     20.05656832	      8.74964025	    -18.52835313	    -23.43331387	      7.84160840	    -10.83917566	      8.21312997	     -6.74100451	     -1.33800095	    -63.23903590	    -21.95813548	      5.34226530	     -2.68378390	      4.14946668	    -14.81425363
      5.16000000	     -1.88131501	      2.68163803	   -113.65470812	      0.37919955	      0.91460647	      0.81454144	     19.36950615	      9.25224109	    -17.66291060	    -23.22149296	      8.06614678	    -10.61123281	      9.92342570	     -7.10940050	     -1.14519301	    -64.86565711	    -21.16966798	      5.13160620	     -2.78123982	      4.26923324	    -14.09167962
      5.17000000	     -1.97964910	      2.69654070	   -114.81084414	      0.37451381	      0.91529046	      0.82017900	     18.63742254	      9.76807848	    -16.70621051	    -22.94298915	      8.29229185	    -10.40446570	     11.58097322	     -7.48630900	     -0.91191306	    -66.25778732	    -20.14185071	      4.82202897	     -2.89247595	      4.36775012	    -13.34577922
      5.18000000	     -2.11296364	      2.65372923	   -116.03338914	      0.36971570	      0.91608526	      0.82560796	     17.79725594	     10.29448870	    -15.71079751	    -22.62096138	      8.50115945	    -10.29391833	     13.08117233	     -7.87381092	     -0.63198581	    -67.38279848	    -18.82837412	      4.69943135	     -3.09460904	      4.45830167	    -12.50051803
      5.19000000	     -2.24284773	      2.64590926	   -117.28832162	      0.36482306	      0.91686358	      0.83083817	     16.92360482	     10.84114275	    -14.63207401	    -22.18193075	      8.62787862	    -10.17720989	     14.55720104	     -8.28564550	     -0.29730879	    -68.25910960	    -17.40538017	      4.33998286	     -3.25617979	      4.54228367	    -11.62575040
      5.20000000	     -2.37327306	      2.60369735	   -118.56941046	      0.35995102	      0.91769986	      0.83587731	     16.00541944	     11.34652147	    -13.52811000	    -21.74356057	      8.75713669	    -10.11209612	     15.91176009	     -8.65141216	      0.13562879	    -68.86013109	    -15.78128327	      4.26984704	     -3.46753324	      4.60072374	    -10.73780722
      5.21000000	     -2.52818571	      2.53670415	   -119.87403818	      0.35501981	      0.91865178	      0.84079730	     14.97878498	     11.85419421	    -12.34255019	    -21.19423239	      8.80089178	    -10.06049761	     17.13533295	     -9.03383134	      0.60732954	    -69.17643267	    -14.10482284	      4.07595659	     -3.71224140	      4.65682811	     -9.83808910
      5.22000000	     -2.67735590	      2.44814502	   -121.18009446	      0.35015131	      0.91966189	      0.84560982	     13.92050592	     12.30254672	    -11.15753935	    -20.64007259	      8.85965729	    -10.01787247	     18.24390900	     -9.37110305	      1.15558612	    -69.21027882	    -12.32515490	      3.96584929	     -3.97800478	      4.68898288	     -8.94761915
